<svg width="56" height="69" viewBox="0 0 56 69" fill="none" xmlns="http://www.w3.org/2000/svg">
<path d="M12.9998 8.73028L21.9009 2.98078C22.5448 2.5649 23.4082 2.85016 23.6775 3.56777L26.1076 10.0423C26.414 10.8586 25.7762 11.7191 24.9062 11.6634L13.5749 10.9383C12.4191 10.8644 12.0269 9.35871 12.9998 8.73028Z" fill="#0075FA"/>
<path fill-rule="evenodd" clip-rule="evenodd" d="M27.5049 29.6C34.9668 28.6487 39.6545 23.5719 40.7195 16.457C40.9385 14.9941 39.6211 13.8372 38.1569 14.0471L14.47 17.444C13.0357 17.6497 12.0962 19.0773 12.6242 20.4266C15.2082 27.0302 20.0213 30.5542 27.5049 29.6Z" fill="#0075FA"/>
<path d="M2.03881 47.7812V40.2527H3.30973V46.575H6.74551V47.7812H2.03881ZM13.4276 40.2527V41.4482H9.41019V43.4408H13.0183V44.5716H9.41019V46.5857H13.5568V47.7812H8.13927V40.2527H13.4276ZM20.3993 44.1193H21.6702V46.6934C20.9593 47.4761 19.9433 47.8674 18.6221 47.8674C17.5092 47.8674 16.5757 47.5012 15.8218 46.7688C15.0751 46.0364 14.7017 45.1102 14.7017 43.99C14.7017 42.8699 15.0822 41.9365 15.8434 41.1897C16.6117 40.443 17.5379 40.0696 18.6221 40.0696C19.7064 40.0696 20.6075 40.3855 21.3255 41.0174L20.647 41.9867C20.3526 41.7354 20.0546 41.5631 19.753 41.4698C19.4586 41.3692 19.114 41.319 18.7191 41.319C17.958 41.319 17.3189 41.5667 16.8019 42.0621C16.2849 42.5504 16.0265 43.1966 16.0265 44.0008C16.0265 44.7978 16.2778 45.4405 16.7804 45.9287C17.283 46.4098 17.8897 46.6504 18.6006 46.6504C19.3186 46.6504 19.9182 46.496 20.3993 46.1872V44.1193ZM28.5507 44.1193H29.8217V46.6934C29.1108 47.4761 28.0948 47.8674 26.7736 47.8674C25.6607 47.8674 24.7272 47.5012 23.9733 46.7688C23.2265 46.0364 22.8532 45.1102 22.8532 43.99C22.8532 42.8699 23.2337 41.9365 23.9948 41.1897C24.7631 40.443 25.6894 40.0696 26.7736 40.0696C27.8578 40.0696 28.759 40.3855 29.477 41.0174L28.7985 41.9867C28.5041 41.7354 28.2061 41.5631 27.9045 41.4698C27.6101 41.3692 27.2655 41.319 26.8706 41.319C26.1094 41.319 25.4704 41.5667 24.9534 42.0621C24.4364 42.5504 24.1779 43.1966 24.1779 44.0008C24.1779 44.7978 24.4292 45.4405 24.9319 45.9287C25.4345 46.4098 26.0412 46.6504 26.7521 46.6504C27.4701 46.6504 28.0697 46.496 28.5507 46.1872V44.1193ZM36.7776 40.2527V41.4482H32.7602V43.4408H36.3683V44.5716H32.7602V46.5857H36.9069V47.7812H31.4893V40.2527H36.7776ZM44.5463 42.6976C44.5463 43.9398 44.0042 44.7224 42.92 45.0456L44.891 47.7812H43.2754L41.4767 45.2502H39.8073V47.7812H38.5364V40.2527H41.3367C42.4856 40.2527 43.3077 40.4466 43.8032 40.8343C44.2986 41.222 44.5463 41.8431 44.5463 42.6976ZM41.3906 44.0977C42.1086 44.0977 42.5969 43.9865 42.8554 43.7639C43.1139 43.5413 43.2431 43.1858 43.2431 42.6976C43.2431 42.2021 43.1103 41.8647 42.8446 41.6852C42.5789 41.4985 42.105 41.4051 41.4229 41.4051H39.8073V44.0977H41.3906ZM51.736 42.0298C51.2262 41.4985 50.598 41.2328 49.8512 41.2328C49.1044 41.2328 48.4726 41.4985 47.9556 42.0298C47.4458 42.5612 47.1909 43.2074 47.1909 43.9685C47.1909 44.7224 47.4458 45.3651 47.9556 45.8964C48.4726 46.4278 49.1044 46.6934 49.8512 46.6934C50.598 46.6934 51.2262 46.4278 51.736 45.8964C52.253 45.3651 52.5115 44.7224 52.5115 43.9685C52.5115 43.2074 52.253 42.5612 51.736 42.0298ZM52.6731 46.7473C51.9119 47.4869 50.9713 47.8566 49.8512 47.8566C48.7311 47.8566 47.7904 47.4869 47.0293 46.7473C46.2682 46.0005 45.8877 45.0743 45.8877 43.9685C45.8877 42.8556 46.2682 41.9293 47.0293 41.1897C47.7904 40.443 48.7311 40.0696 49.8512 40.0696C50.9713 40.0696 51.9119 40.443 52.6731 41.1897C53.4342 41.9293 53.8147 42.8556 53.8147 43.9685C53.8147 45.0743 53.4342 46.0005 52.6731 46.7473Z" fill="#04081A"/>
<path d="M7.16418 54.1068V62.8906H5.41038V54.1068H2.2595V52.5016H10.3151V54.1068H7.16418ZM19.6119 54.954C18.9084 54.2207 18.0414 53.8541 17.0109 53.8541C15.9804 53.8541 15.1085 54.2207 14.3951 54.954C13.6916 55.6872 13.3398 56.579 13.3398 57.6292C13.3398 58.6696 13.6916 59.5564 14.3951 60.2897C15.1085 61.0229 15.9804 61.3895 17.0109 61.3895C18.0414 61.3895 18.9084 61.0229 19.6119 60.2897C20.3253 59.5564 20.682 58.6696 20.682 57.6292C20.682 56.579 20.3253 55.6872 19.6119 54.954ZM20.9049 61.4638C19.8546 62.4844 18.5566 62.9947 17.0109 62.9947C15.4652 62.9947 14.1672 62.4844 13.1169 61.4638C12.0666 60.4333 11.5415 59.1551 11.5415 57.6292C11.5415 56.0934 12.0666 54.8152 13.1169 53.7947C14.1672 52.7642 15.4652 52.249 17.0109 52.249C18.5566 52.249 19.8546 52.7642 20.9049 53.7947C21.9552 54.8152 22.4804 56.0934 22.4804 57.6292C22.4804 59.1551 21.9552 60.4333 20.9049 61.4638ZM27.026 60.5126C27.5016 61.0675 28.1457 61.3449 28.9582 61.3449C29.7707 61.3449 30.4147 61.0675 30.8903 60.5126C31.3659 59.9577 31.6037 59.2047 31.6037 58.2535V52.5016H33.3575V58.3278C33.3575 59.824 32.9463 60.9783 32.1239 61.7908C31.3015 62.5934 30.2463 62.9947 28.9582 62.9947C27.6701 62.9947 26.6148 62.5934 25.7924 61.7908C24.97 60.9783 24.5588 59.824 24.5588 58.3278V52.5016H26.3126V58.2535C26.3126 59.2047 26.5504 59.9577 27.026 60.5126ZM44.3942 55.8755C44.3942 57.5896 43.6461 58.6696 42.1499 59.1155L44.8698 62.8906H42.6404L40.1583 59.3979H37.8546V62.8906H36.1008V52.5016H39.9651C41.5505 52.5016 42.685 52.7692 43.3687 53.3042C44.0524 53.8393 44.3942 54.6963 44.3942 55.8755ZM40.0394 57.8076C41.0303 57.8076 41.7041 57.654 42.0608 57.3469C42.4175 57.0397 42.5958 56.5492 42.5958 55.8755C42.5958 55.1918 42.4125 54.7261 42.0459 54.4784C41.6793 54.2207 41.0253 54.0919 40.084 54.0919H37.8546V57.8076H40.0394ZM50.05 53.869C49.5447 53.869 49.1285 53.973 48.8016 54.1811C48.4746 54.3892 48.3111 54.7063 48.3111 55.1323C48.3111 55.5485 48.4746 55.8705 48.8016 56.0984C49.1285 56.3164 49.8221 56.5542 50.8823 56.8118C51.9524 57.0694 52.755 57.4311 53.2901 57.8968C53.835 58.3625 54.1075 59.0511 54.1075 59.9627C54.1075 60.8643 53.7657 61.5976 53.082 62.1624C52.3983 62.7271 51.5016 63.0095 50.3919 63.0095C48.7669 63.0095 47.3252 62.4497 46.0668 61.33L47.1667 60.0073C48.217 60.9188 49.3069 61.3746 50.4365 61.3746C51.0012 61.3746 51.4471 61.2557 51.7741 61.0179C52.111 60.7702 52.2794 60.4482 52.2794 60.0519C52.2794 59.6456 52.1209 59.3335 51.8038 59.1155C51.4967 58.8876 50.9616 58.6845 50.1986 58.5061C49.4357 58.3179 48.8561 58.1494 48.4597 58.0008C48.0634 57.8423 47.7116 57.6392 47.4045 57.3914C46.7901 56.9257 46.483 56.2123 46.483 55.2512C46.483 54.2901 46.8298 53.5519 47.5234 53.0367C48.2269 52.5115 49.0939 52.249 50.1243 52.249C50.7882 52.249 51.4471 52.358 52.1011 52.5759C52.755 52.7939 53.3198 53.1011 53.7954 53.4974L52.8591 54.8202C52.5519 54.5428 52.1357 54.3149 51.6106 54.1365C51.0855 53.9582 50.5653 53.869 50.05 53.869Z" fill="#04081A"/>
</svg>
