<svg width="1045" height="236" viewBox="0 0 1045 236" fill="none" xmlns="http://www.w3.org/2000/svg">
<g clip-path="url(#clip0_804_4327)">
<path d="M50.5171 215.87L0.324219 235.75H1044.58V208.408L1035.86 176.073L990.467 153.693L982.104 126.781L942.878 148.51L901.366 105.114L892.927 119.721L862.717 110.634L869.292 98.9253L861.656 88.5388L827.611 90.7628L825.752 112.335L771.271 127.186L749.584 106.34L753.098 84.6801L733.234 69.4449L711.524 71.0038L694.446 17.5834L660.464 16.9771L651.797 0.632812L627.681 1.13734L615.157 24.3353L589.862 39.9263L608.099 65.5598L605.524 120.802L582.912 129.416L572.193 110.42L538.135 110.401L535.669 132.045L507.352 150.238L509.865 172.668L490.334 177.045L488.88 143.994L476.164 142.968L482.263 130.302L461.473 83.7273L438.112 77.1581L386.161 67.534L364.457 93.5926L374.361 108.452L328.397 147.844L315.107 134.942L267.847 130.697L264.317 117.4L244.35 140.394L224.714 122.2L212.095 126.265L199.733 157.55L179.145 165.526L138.774 121.38L111.938 115.114L100.406 90.7847L75.295 106.1L72.3154 134.103L51.1865 138.126L65.1649 188.91L50.5171 215.87Z" fill="#0075FA"/>
</g>
<defs>
<clipPath id="clip0_804_4327">
<rect width="1045" height="236" fill="white"/>
</clipPath>
</defs>
</svg>
