<svg width="1045" height="236" viewBox="0 0 1045 236" fill="none" xmlns="http://www.w3.org/2000/svg">
<path d="M50.5165 215.87L0.323592 235.75L1044.58 235.75L1044.58 208.408L1035.86 176.073L990.466 153.693L982.103 126.781L942.877 148.51L901.365 105.114L892.926 119.721L862.716 110.634L869.291 98.9254L861.655 88.5389L827.61 90.7629L825.751 112.335L771.27 127.186L749.583 106.34L753.097 84.6802L733.233 69.445L711.523 71.0039L694.445 17.5835L660.463 16.9772L651.796 0.632941L627.68 1.13747L615.156 24.3354L589.861 39.9264L608.098 65.5599L605.523 120.802L582.911 129.416L572.192 110.42L538.134 110.401L535.668 132.045L507.351 150.238L509.864 172.668L490.333 177.045L488.879 143.994L476.163 142.968L482.262 130.302L461.472 83.7274L438.111 77.1582L386.16 67.5341L364.456 93.5927L374.36 108.452L328.396 147.844L315.106 134.942L267.846 130.697L264.316 117.4L244.349 140.394L224.713 122.2L212.094 126.265L199.732 157.55L179.144 165.526L138.773 121.38L111.937 115.114L100.405 90.7848L75.2944 106.1L72.3148 134.103L51.1859 138.126L65.1643 188.91L50.5165 215.87Z" fill="white"/>
</svg>
