<svg width="508" height="236" viewBox="0 0 508 236" fill="none" xmlns="http://www.w3.org/2000/svg">
<path d="M-230.808 215.346L-281.001 235.226L763.251 235.226L763.251 207.884L754.534 175.55L709.142 153.169L700.779 126.258L661.553 147.986L620.041 104.591L611.602 119.198L581.392 110.111L587.967 98.402L580.331 88.0155L546.286 90.2394L544.426 111.812L489.946 126.663L468.259 105.817L471.773 84.1568L451.909 68.9216L430.199 70.4805L413.121 17.0601L379.139 16.4538L370.471 0.109504L346.356 0.61403L333.832 23.812L308.537 39.403L326.774 65.0365L324.198 120.278L301.587 128.893L290.867 109.896L256.81 109.878L254.344 131.522L226.027 149.715L228.54 172.145L209.009 176.521L207.554 143.471L194.838 142.444L200.938 129.779L180.148 83.204L156.787 76.6347L104.835 67.0107L83.1322 93.0693L93.0355 107.928L47.0723 147.32L33.7819 134.419L-13.4787 130.174L-17.0085 116.876L-36.9756 139.87L-56.611 121.677L-69.2303 125.741L-81.5922 157.027L-102.18 165.003L-142.551 120.856L-169.387 114.59L-180.919 90.2613L-206.03 105.577L-209.009 133.58L-230.138 137.603L-216.16 188.386L-230.808 215.346Z" fill="white"/>
</svg>
