<svg width="508" height="236" viewBox="0 0 508 236" fill="none" xmlns="http://www.w3.org/2000/svg">
<g clip-path="url(#clip0_803_4307)">
<path d="M-230.807 215.346L-281 235.226H763.252V207.884L754.535 175.55L709.143 153.169L700.78 126.258L661.554 147.986L620.042 104.591L611.603 119.198L581.393 110.111L587.968 98.4019L580.332 88.0154L546.287 90.2393L544.427 111.812L489.947 126.663L468.26 105.817L471.774 84.1567L451.91 68.9215L430.2 70.4804L413.122 17.06L379.14 16.4537L370.472 0.109375L346.357 0.613901L333.833 23.8119L308.538 39.4029L326.775 65.0364L324.199 120.278L301.588 128.893L290.868 109.896L256.811 109.878L254.345 131.522L226.028 149.715L228.541 172.145L209.01 176.521L207.555 143.471L194.839 142.444L200.939 129.779L180.149 83.2039L156.788 76.6346L104.836 67.0106L83.1332 93.0692L93.0365 107.928L47.0733 147.32L33.7829 134.419L-13.4777 130.174L-17.0075 116.876L-36.9746 139.87L-56.61 121.677L-69.2293 125.741L-81.5912 157.027L-102.179 165.003L-142.55 120.856L-169.386 114.59L-180.918 90.2612L-206.029 105.577L-209.008 133.58L-230.137 137.603L-216.159 188.386L-230.807 215.346Z" fill="#0075FA"/>
</g>
<defs>
<clipPath id="clip0_803_4307">
<rect width="508" height="236" fill="white"/>
</clipPath>
</defs>
</svg>
