<svg width="1047" height="239" viewBox="0 0 1047 239" fill="none" xmlns="http://www.w3.org/2000/svg">
<path d="M0.999373 237.226L51.1923 217.346L65.8401 190.386L51.8617 139.603L72.9906 135.58L75.9702 107.577L101.081 92.2613L112.613 116.59L139.449 122.856L179.82 167.003L200.408 159.027L212.77 127.741L225.389 123.677L245.024 141.87L264.992 118.876L268.521 132.174L315.782 136.419L329.072 149.32L375.036 109.928L365.132 95.0693L386.835 69.0107L438.787 78.6347L462.148 85.204L482.938 131.779L476.838 144.444L489.554 145.471L491.009 178.521L510.54 174.145L508.027 151.715L536.344 133.522L538.81 111.878L572.867 111.896L583.587 130.893L606.198 122.278L608.774 67.0365L590.537 41.403L615.832 25.812L628.356 2.61403L652.471 2.1095L661.139 18.4538L695.121 19.0601L712.199 72.4805L733.909 70.9216L753.773 86.1568L750.259 107.817L771.946 128.663L826.426 113.812L828.286 92.2394L862.331 90.0155L869.967 100.402L863.392 112.111L893.602 121.198L902.041 106.591L943.553 149.986L982.779 128.258L991.142 155.169L1036.53 177.55L1045.25 209.884" stroke="#EEEEEE" stroke-width="3"/>
</svg>
