<svg width="15" height="15" viewBox="0 0 15 15" fill="none" xmlns="http://www.w3.org/2000/svg">
<path d="M10.4679 2.225V1.25C10.4679 0.99375 10.2554 0.78125 9.99917 0.78125C9.74292 0.78125 9.53042 0.99375 9.53042 1.25V2.1875H5.46792V1.25C5.46792 0.99375 5.25542 0.78125 4.99917 0.78125C4.74292 0.78125 4.53042 0.99375 4.53042 1.25V2.225C2.84292 2.38125 2.02417 3.3875 1.89917 4.88125C1.88667 5.0625 2.03667 5.2125 2.21167 5.2125H12.7867C12.9679 5.2125 13.1179 5.05625 13.0992 4.88125C12.9742 3.3875 12.1554 2.38125 10.4679 2.225Z" fill="#0075FA"/>
<path d="M11.875 9.375C10.4937 9.375 9.375 10.4937 9.375 11.875C9.375 12.3438 9.50625 12.7875 9.7375 13.1625C10.1687 13.8875 10.9625 14.375 11.875 14.375C12.7875 14.375 13.5813 13.8875 14.0125 13.1625C14.2438 12.7875 14.375 12.3438 14.375 11.875C14.375 10.4937 13.2562 9.375 11.875 9.375ZM13.1687 11.6062L11.8375 12.8375C11.75 12.9188 11.6313 12.9625 11.5188 12.9625C11.4 12.9625 11.2812 12.9188 11.1875 12.825L10.5687 12.2063C10.3875 12.025 10.3875 11.725 10.5687 11.5437C10.75 11.3625 11.05 11.3625 11.2312 11.5437L11.5313 11.8438L12.5312 10.9187C12.7187 10.7437 13.0188 10.7563 13.1938 10.9438C13.3688 11.1313 13.3562 11.425 13.1687 11.6062Z" fill="#0075FA"/>
<path d="M12.5 6.14844H2.5C2.15625 6.14844 1.875 6.42969 1.875 6.77344V10.6234C1.875 12.4984 2.8125 13.7484 5 13.7484H8.08125C8.5125 13.7484 8.8125 13.3297 8.675 12.9234C8.55 12.5609 8.44375 12.1609 8.44375 11.8734C8.44375 9.97969 9.9875 8.43594 11.8813 8.43594C12.0625 8.43594 12.2438 8.44844 12.4188 8.47969C12.7938 8.53594 13.1313 8.24219 13.1313 7.86719V6.77969C13.125 6.42969 12.8438 6.14844 12.5 6.14844ZM5.75625 11.3797C5.6375 11.4922 5.475 11.5609 5.3125 11.5609C5.15 11.5609 4.9875 11.4922 4.86875 11.3797C4.75625 11.2609 4.6875 11.0984 4.6875 10.9359C4.6875 10.7734 4.75625 10.6109 4.86875 10.4922C4.93125 10.4359 4.99375 10.3922 5.075 10.3609C5.30625 10.2609 5.58125 10.3172 5.75625 10.4922C5.86875 10.6109 5.9375 10.7734 5.9375 10.9359C5.9375 11.0984 5.86875 11.2609 5.75625 11.3797ZM5.75625 9.19219C5.725 9.21719 5.69375 9.24219 5.6625 9.26719C5.625 9.29219 5.5875 9.31094 5.55 9.32344C5.5125 9.34219 5.475 9.35469 5.4375 9.36094C5.39375 9.36719 5.35 9.37344 5.3125 9.37344C5.15 9.37344 4.9875 9.30469 4.86875 9.19219C4.75625 9.07344 4.6875 8.91094 4.6875 8.74844C4.6875 8.58594 4.75625 8.42344 4.86875 8.30469C5.0125 8.16094 5.23125 8.09219 5.4375 8.13594C5.475 8.14219 5.5125 8.15469 5.55 8.17344C5.5875 8.18594 5.625 8.20469 5.6625 8.22969C5.69375 8.25469 5.725 8.27969 5.75625 8.30469C5.86875 8.42344 5.9375 8.58594 5.9375 8.74844C5.9375 8.91094 5.86875 9.07344 5.75625 9.19219ZM7.94375 9.19219C7.825 9.30469 7.6625 9.37344 7.5 9.37344C7.3375 9.37344 7.175 9.30469 7.05625 9.19219C6.94375 9.07344 6.875 8.91094 6.875 8.74844C6.875 8.58594 6.94375 8.42344 7.05625 8.30469C7.29375 8.07344 7.7125 8.07344 7.94375 8.30469C8.05625 8.42344 8.125 8.58594 8.125 8.74844C8.125 8.91094 8.05625 9.07344 7.94375 9.19219Z" fill="#0075FA"/>
</svg>
