<svg width="20" height="20" viewBox="0 0 20 20" fill="none" xmlns="http://www.w3.org/2000/svg">
<path d="M11.291 16.799C11.0743 16.8906 10.841 16.974 10.591 17.0573L9.27431 17.4906C5.96597 18.5573 4.22431 17.6656 3.14931 14.3573L2.08264 11.0656C1.01597 7.75729 1.89931 6.00729 5.20764 4.94062L6.49097 4.51562C6.33264 4.91563 6.19931 5.37396 6.07431 5.89063L5.25764 9.38229C4.34097 13.3073 5.68264 15.474 9.60764 16.4073L11.0076 16.7406C11.0993 16.7656 11.1993 16.7823 11.291 16.799Z" fill="#0075FA"/>
<path d="M14.3078 2.67639L12.9162 2.35139C10.1328 1.69306 8.4745 2.23472 7.4995 4.25139C7.2495 4.75972 7.0495 5.37639 6.88283 6.08472L6.06617 9.57639C5.2495 13.0597 6.3245 14.7764 9.7995 15.6014L11.1995 15.9347C11.6828 16.0514 12.1328 16.1264 12.5495 16.1597C15.1495 16.4097 16.5328 15.1931 17.2328 12.1847L18.0495 8.70139C18.8662 5.21806 17.7995 3.49306 14.3078 2.67639Z" fill="#0075FA"/>
</svg>
