<svg width="21" height="21" viewBox="0 0 21 21" fill="none" xmlns="http://www.w3.org/2000/svg">
<path fill-rule="evenodd" clip-rule="evenodd" d="M10.5 18.6626C14.9183 18.6626 18.5 15.0809 18.5 10.6626C18.5 6.24435 14.9183 2.66263 10.5 2.66263C6.08172 2.66263 2.5 6.24435 2.5 10.6626C2.5 15.0809 6.08172 18.6626 10.5 18.6626ZM14.2071 9.36973C14.5976 8.97921 14.5976 8.34605 14.2071 7.95552C13.8166 7.565 13.1834 7.565 12.7929 7.95552L9.5 11.2484L8.20711 9.95552C7.81658 9.565 7.18342 9.565 6.79289 9.95552C6.40237 10.346 6.40237 10.9792 6.79289 11.3697L8.79289 13.3697C9.18342 13.7603 9.81658 13.7603 10.2071 13.3697L14.2071 9.36973Z" fill="#0075FA"/>
</svg>
