<svg width="15" height="15" viewBox="0 0 15 15" fill="none" xmlns="http://www.w3.org/2000/svg">
<path d="M7.92627 2.37231C11.0049 2.37257 13.5005 4.86883 13.5005 7.94751C13.5002 11.026 11.0047 13.5215 7.92627 13.5217C4.84759 13.5217 2.35133 11.0261 2.35107 7.94751C2.35107 4.86867 4.84743 2.37231 7.92627 2.37231ZM7.92529 4.46216C7.54067 4.46237 7.2281 4.77476 7.22803 5.15942V7.94653C7.22803 8.13116 7.30169 8.30905 7.43213 8.4397L9.40381 10.4104L9.51318 10.5002C9.78357 10.6785 10.1512 10.6483 10.3892 10.4104C10.6272 10.1723 10.6566 9.80486 10.478 9.53442L10.3892 9.42505L8.62256 7.65845V5.15942C8.62248 4.77463 8.3101 4.46216 7.92529 4.46216Z" fill="#0075FA"/>
</svg>
