<svg width="20" height="20" viewBox="0 0 20 20" fill="none" xmlns="http://www.w3.org/2000/svg">
<path d="M10 1.99219C14.4182 1.99219 17.9999 5.57402 18 9.99219C18 14.4105 14.4183 17.9922 10 17.9922C5.58183 17.9921 2 14.4104 2 9.99219C2.00012 5.5741 5.5819 1.99232 10 1.99219ZM12.3164 13.3359C12.5999 13.6191 13.0594 13.6193 13.3428 13.3359C13.6258 13.0526 13.6258 12.5929 13.3428 12.3096L12.3164 13.3359ZM10.001 5.26856C9.60019 5.26856 9.27547 5.59338 9.27539 5.99415V9.99415C9.27539 10.1866 9.35119 10.3717 9.4873 10.5078L12.3164 13.3359L12.8291 12.8223L13.3428 12.3096L10.7266 9.69239V5.99415C10.7265 5.5935 10.4016 5.26876 10.001 5.26856Z" fill="#5EFFF7"/>
</svg>
