<svg width="20" height="20" viewBox="0 0 20 20" fill="none" xmlns="http://www.w3.org/2000/svg">
<path d="M10 1.99609C14.4182 1.99609 17.9999 5.57792 18 9.99609C18 14.4144 14.4183 17.9961 10 17.9961C5.58183 17.996 2 14.4143 2 9.99609C2.00012 5.578 5.5819 1.99622 10 1.99609ZM12.3164 13.3398C12.5999 13.623 13.0594 13.6232 13.3428 13.3398C13.6258 13.0565 13.6258 12.5968 13.3428 12.3135L12.3164 13.3398ZM10.001 5.27246C9.60019 5.27246 9.27547 5.59728 9.27539 5.99805V9.99805C9.27539 10.1905 9.35119 10.3756 9.4873 10.5117L12.3164 13.3398L12.8291 12.8262L13.3428 12.3135L10.7266 9.69629V5.99805C10.7265 5.5974 10.4016 5.27266 10.001 5.27246Z" fill="white"/>
</svg>
