<svg width="15" height="15" viewBox="0 0 15 15" fill="none" xmlns="http://www.w3.org/2000/svg">
<path fill-rule="evenodd" clip-rule="evenodd" d="M7.79353 13.5204C10.8717 13.5204 13.3671 11.025 13.3671 7.94685C13.3671 4.86866 10.8717 2.37329 7.79353 2.37329C4.71534 2.37329 2.21997 4.86866 2.21997 7.94685C2.21997 11.025 4.71534 13.5204 7.79353 13.5204ZM6.91302 5.84211C7.24169 5.29432 7.58185 5.16007 7.79353 5.16007C8.0052 5.16007 8.34536 5.29432 8.67403 5.84211C8.87199 6.17205 9.29994 6.27903 9.62988 6.08107C9.95983 5.88311 10.0668 5.45515 9.86885 5.12521C9.38129 4.31261 8.65165 3.76668 7.79353 3.76668C6.9354 3.76668 6.20576 4.31261 5.7182 5.12521C5.51974 5.45599 5.365 5.8215 5.25126 6.20511H5.00675C4.62197 6.20511 4.31005 6.51703 4.31005 6.9018C4.31005 7.28658 4.62197 7.5985 5.00675 7.5985H5.01606C5.00983 7.71486 5.00675 7.83111 5.00675 7.94685C5.00675 8.06258 5.00983 8.17883 5.01606 8.29519H5.00675C4.62197 8.29519 4.31005 8.60711 4.31005 8.99189C4.31005 9.37666 4.62197 9.68858 5.00675 9.68858H5.25126C5.365 10.0722 5.51974 10.4377 5.7182 10.7685C6.20576 11.5811 6.9354 12.127 7.79353 12.127C8.65165 12.127 9.38129 11.5811 9.86885 10.7685C10.0668 10.4385 9.95983 10.0106 9.62988 9.81262C9.29994 9.61466 8.87199 9.72165 8.67403 10.0516C8.34536 10.5994 8.0052 10.7336 7.79353 10.7336C7.58185 10.7336 7.24169 10.5994 6.91302 10.0516C6.84551 9.93907 6.78408 9.81756 6.72909 9.68858H7.79353C8.1783 9.68858 8.49022 9.37666 8.49022 8.99189C8.49022 8.60711 8.1783 8.29519 7.79353 8.29519H6.41195C6.40412 8.18025 6.40014 8.06395 6.40014 7.94685C6.40014 7.82974 6.40412 7.71344 6.41195 7.5985H7.79353C8.1783 7.5985 8.49022 7.28658 8.49022 6.9018C8.49022 6.51703 8.1783 6.20511 7.79353 6.20511H6.72909C6.78408 6.07613 6.84551 5.95463 6.91302 5.84211Z" fill="#0075FA"/>
</svg>
