<svg width="25" height="25" viewBox="0 0 25 25" fill="none" xmlns="http://www.w3.org/2000/svg">
<g clip-path="url(#clip0_804_4315)">
<mask id="mask0_804_4315" style="mask-type:luminance" maskUnits="userSpaceOnUse" x="0" y="0" width="25" height="25">
<path d="M25 0H0V25H25V0Z" fill="white"/>
</mask>
<g mask="url(#mask0_804_4315)">
<path d="M24.9992 12.5781C24.9992 5.63125 19.4023 0 12.4992 0C5.59297 0.0015625 -0.00390625 5.63125 -0.00390625 12.5797C-0.00390625 18.8563 4.56797 24.0594 10.543 25.0031V16.2141H7.37109V12.5797H10.5461V9.80625C10.5461 6.65469 12.4133 4.91406 15.268 4.91406C16.6367 4.91406 18.0664 5.15938 18.0664 5.15938V8.25313H16.4898C14.9383 8.25313 14.4539 9.22344 14.4539 10.2187V12.5781H17.9195L17.3664 16.2125H14.4523V25.0016C20.4273 24.0578 24.9992 18.8547 24.9992 12.5781Z" fill="white"/>
</g>
</g>
<defs>
<clipPath id="clip0_804_4315">
<rect width="25" height="25" fill="white"/>
</clipPath>
</defs>
</svg>
