<svg width="16" height="15" viewBox="0 0 16 15" fill="none" xmlns="http://www.w3.org/2000/svg">
<path fill-rule="evenodd" clip-rule="evenodd" d="M4.25 6.75V5.25C4.25 3.17893 5.92893 1.5 8 1.5C10.0711 1.5 11.75 3.17893 11.75 5.25V6.75C12.5784 6.75 13.25 7.42157 13.25 8.25V12C13.25 12.8284 12.5784 13.5 11.75 13.5H4.25C3.42157 13.5 2.75 12.8284 2.75 12V8.25C2.75 7.42157 3.42157 6.75 4.25 6.75ZM10.25 5.25V6.75H5.75V5.25C5.75 4.00736 6.75736 3 8 3C9.24264 3 10.25 4.00736 10.25 5.25Z" fill="#0075FA"/>
</svg>
