<svg width="12" height="12" viewBox="0 0 12 12" fill="none" xmlns="http://www.w3.org/2000/svg">
<path fill-rule="evenodd" clip-rule="evenodd" d="M3.46753 5.19886V4.07898C3.46753 2.53276 4.72099 1.2793 6.26722 1.2793C7.81344 1.2793 9.06691 2.53276 9.06691 4.07898V5.19886C9.6854 5.19886 10.1868 5.70024 10.1868 6.31873V9.11842C10.1868 9.73691 9.6854 10.2383 9.06691 10.2383H3.46753C2.84904 10.2383 2.34766 9.73691 2.34766 9.11842V6.31873C2.34766 5.70024 2.84904 5.19886 3.46753 5.19886ZM7.94703 4.07898V5.19886H4.58741V4.07898C4.58741 3.15125 5.33948 2.39917 6.26722 2.39917C7.19495 2.39917 7.94703 3.15125 7.94703 4.07898Z" fill="#2D2F36"/>
</svg>
