<svg width="15" height="15" viewBox="0 0 15 15" fill="none" xmlns="http://www.w3.org/2000/svg">
<path d="M10.9546 4.85625C10.9109 4.85 10.8671 4.85 10.8234 4.85625C9.85469 4.825 9.08594 4.03125 9.08594 3.05625C9.08594 2.0625 9.89219 1.25 10.8921 1.25C11.8859 1.25 12.6984 2.05625 12.6984 3.05625C12.6921 4.03125 11.9234 4.825 10.9546 4.85625Z" fill="#5EFFF7"/>
<path d="M12.9938 9.19068C12.2938 9.65943 11.3125 9.83443 10.4062 9.71568C10.6437 9.20318 10.7687 8.63443 10.775 8.03443C10.775 7.40943 10.6375 6.81568 10.375 6.29693C11.3 6.17193 12.2813 6.34693 12.9875 6.81568C13.975 7.46568 13.975 8.53443 12.9938 9.19068Z" fill="#5EFFF7"/>
<path d="M4.02656 4.85625C4.07031 4.85 4.11406 4.85 4.15781 4.85625C5.12656 4.825 5.89531 4.03125 5.89531 3.05625C5.89531 2.05625 5.08906 1.25 4.08906 1.25C3.09531 1.25 2.28906 2.05625 2.28906 3.05625C2.28906 4.03125 3.05781 4.825 4.02656 4.85625Z" fill="#5EFFF7"/>
<path d="M4.09297 8.02674C4.09297 8.63299 4.22422 9.20799 4.46172 9.72674C3.58047 9.82049 2.66172 9.63299 1.98672 9.18924C0.999218 8.53299 0.999218 7.46424 1.98672 6.80799C2.65547 6.35799 3.59922 6.17674 4.48672 6.27674C4.23047 6.80174 4.09297 7.39549 4.09297 8.02674Z" fill="#5EFFF7"/>
<path d="M7.575 9.91875C7.525 9.9125 7.46875 9.9125 7.4125 9.91875C6.2625 9.88125 5.34375 8.9375 5.34375 7.775C5.35 6.5875 6.30625 5.625 7.5 5.625C8.6875 5.625 9.65 6.5875 9.65 7.775C9.64375 8.9375 8.73125 9.88125 7.575 9.91875Z" fill="#5EFFF7"/>
<path d="M5.54375 11.2109C4.6 11.8422 4.6 12.8797 5.54375 13.5047C6.61875 14.2234 8.38125 14.2234 9.45625 13.5047C10.4 12.8734 10.4 11.8359 9.45625 11.2109C8.3875 10.4922 6.625 10.4922 5.54375 11.2109Z" fill="#5EFFF7"/>
</svg>
