<svg width="15" height="15" viewBox="0 0 15 15" fill="none" xmlns="http://www.w3.org/2000/svg">
<g clip-path="url(#clip0_8_109)">
<path d="M9.94974 5.15962C9.94974 6.31418 9.01378 7.25014 7.85922 7.25014C6.70465 7.25014 5.76869 6.31418 5.76869 5.15962C5.76869 4.00505 6.70465 3.06909 7.85922 3.06909C9.01378 3.06909 9.94974 4.00505 9.94974 5.15962Z" fill="#0075FA"/>
<path d="M13.4339 6.5533C13.4339 7.32301 12.81 7.94698 12.0403 7.94698C11.2706 7.94698 10.6466 7.32301 10.6466 6.5533C10.6466 5.78359 11.2706 5.15962 12.0403 5.15962C12.81 5.15962 13.4339 5.78359 13.4339 6.5533Z" fill="#0075FA"/>
<path d="M10.6466 11.4312C10.6466 9.89177 9.39864 8.64382 7.85922 8.64382C6.3198 8.64382 5.07185 9.89177 5.07185 11.4312V13.5217H10.6466V11.4312Z" fill="#0075FA"/>
<path d="M5.07185 6.5533C5.07185 7.32301 4.44788 7.94698 3.67817 7.94698C2.90846 7.94698 2.28449 7.32301 2.28449 6.5533C2.28449 5.78359 2.90846 5.15962 3.67817 5.15962C4.44788 5.15962 5.07185 5.78359 5.07185 6.5533Z" fill="#0075FA"/>
<path d="M12.0403 13.5217V11.4312C12.0403 10.6966 11.8508 10.0063 11.5181 9.40639C11.685 9.36348 11.86 9.34066 12.0403 9.34066C13.1948 9.34066 14.1308 10.2766 14.1308 11.4312V13.5217H12.0403Z" fill="#0075FA"/>
<path d="M4.20029 9.40639C3.86761 10.0063 3.67817 10.6966 3.67817 11.4312V13.5217H1.58765V11.4312C1.58765 10.2766 2.52361 9.34066 3.67817 9.34066C3.85845 9.34066 4.0334 9.36348 4.20029 9.40639Z" fill="#0075FA"/>
</g>
<defs>
<clipPath id="clip0_8_109">
<rect width="13.9368" height="13.9368" fill="white" transform="translate(0.890869 0.978516)"/>
</clipPath>
</defs>
</svg>
