<svg width="15" height="15" viewBox="0 0 15 15" fill="none" xmlns="http://www.w3.org/2000/svg">
<path d="M10.9566 4.85625C10.9129 4.85 10.8691 4.85 10.8254 4.85625C9.85664 4.825 9.08789 4.03125 9.08789 3.05625C9.08789 2.0625 9.89414 1.25 10.8941 1.25C11.8879 1.25 12.7004 2.05625 12.7004 3.05625C12.6941 4.03125 11.9254 4.825 10.9566 4.85625Z" fill="#0075FA"/>
<path d="M12.9938 9.18678C12.2938 9.65553 11.3125 9.83053 10.4062 9.71178C10.6437 9.19928 10.7687 8.63053 10.775 8.03053C10.775 7.40553 10.6375 6.81178 10.375 6.29303C11.3 6.16803 12.2813 6.34303 12.9875 6.81178C13.975 7.46178 13.975 8.53053 12.9938 9.18678Z" fill="#0075FA"/>
<path d="M4.02461 4.85625C4.06836 4.85 4.11211 4.85 4.15586 4.85625C5.12461 4.825 5.89336 4.03125 5.89336 3.05625C5.89336 2.05625 5.08711 1.25 4.08711 1.25C3.09336 1.25 2.28711 2.05625 2.28711 3.05625C2.28711 4.03125 3.05586 4.825 4.02461 4.85625Z" fill="#0075FA"/>
<path d="M4.09297 8.03064C4.09297 8.63689 4.22422 9.21189 4.46172 9.73064C3.58047 9.82439 2.66172 9.63689 1.98672 9.19314C0.999219 8.53689 0.999219 7.46814 1.98672 6.81189C2.65547 6.36189 3.59922 6.18064 4.48672 6.28064C4.23047 6.80564 4.09297 7.39939 4.09297 8.03064Z" fill="#0075FA"/>
<path d="M7.575 9.91875C7.525 9.9125 7.46875 9.9125 7.4125 9.91875C6.2625 9.88125 5.34375 8.9375 5.34375 7.775C5.35 6.5875 6.30625 5.625 7.5 5.625C8.6875 5.625 9.65 6.5875 9.65 7.775C9.64375 8.9375 8.73125 9.88125 7.575 9.91875Z" fill="#0075FA"/>
<path d="M5.54375 11.2109C4.6 11.8422 4.6 12.8797 5.54375 13.5047C6.61875 14.2234 8.38125 14.2234 9.45625 13.5047C10.4 12.8734 10.4 11.8359 9.45625 11.2109C8.3875 10.4922 6.625 10.4922 5.54375 11.2109Z" fill="#0075FA"/>
</svg>
