<svg width="21" height="20" viewBox="0 0 21 20" fill="none" xmlns="http://www.w3.org/2000/svg">
<path fill-rule="evenodd" clip-rule="evenodd" d="M5.68555 2C6.23783 2 6.68555 2.44772 6.68555 3V4H7.68555C8.23783 4 8.68555 4.44772 8.68555 5C8.68555 5.55228 8.23783 6 7.68555 6H6.68555V7C6.68555 7.55228 6.23783 8 5.68555 8C5.13326 8 4.68555 7.55228 4.68555 7V6H3.68555C3.13326 6 2.68555 5.55228 2.68555 5C2.68555 4.44772 3.13326 4 3.68555 4H4.68555V3C4.68555 2.44772 5.13326 2 5.68555 2ZM5.68555 12C6.23783 12 6.68555 12.4477 6.68555 13V14H7.68555C8.23783 14 8.68555 14.4477 8.68555 15C8.68555 15.5523 8.23783 16 7.68555 16H6.68555V17C6.68555 17.5523 6.23783 18 5.68555 18C5.13326 18 4.68555 17.5523 4.68555 17V16H3.68555C3.13326 16 2.68555 15.5523 2.68555 15C2.68555 14.4477 3.13326 14 3.68555 14H4.68555V13C4.68555 12.4477 5.13326 12 5.68555 12Z" fill="#0075FA"/>
<path fill-rule="evenodd" clip-rule="evenodd" d="M12.6855 2C13.1392 2 13.5361 2.30548 13.6522 2.74411L14.8314 7.19893L18.1852 9.13381C18.4948 9.31241 18.6855 9.64262 18.6855 10C18.6855 10.3574 18.4948 10.6876 18.1852 10.8662L14.8314 12.8011L13.6522 17.2559C13.5361 17.6945 13.1392 18 12.6855 18C12.2318 18 11.8349 17.6945 11.7188 17.2559L10.5396 12.8011L7.18582 10.8662C6.87626 10.6876 6.68555 10.3574 6.68555 10C6.68555 9.64262 6.87626 9.31241 7.18582 9.13382L10.5396 7.19893L11.7188 2.74411C11.8349 2.30548 12.2318 2 12.6855 2Z" fill="#0075FA"/>
</svg>
