<svg width="21" height="21" viewBox="0 0 21 21" fill="none" xmlns="http://www.w3.org/2000/svg">
<path fill-rule="evenodd" clip-rule="evenodd" d="M5.94141 2.20605C6.49369 2.20605 6.94141 2.65377 6.94141 3.20605V4.20605H7.94141C8.49369 4.20605 8.94141 4.65377 8.94141 5.20605C8.94141 5.75834 8.49369 6.20605 7.94141 6.20605H6.94141V7.20605C6.94141 7.75834 6.49369 8.20605 5.94141 8.20605C5.38912 8.20605 4.94141 7.75834 4.94141 7.20605V6.20605H3.94141C3.38912 6.20605 2.94141 5.75834 2.94141 5.20605C2.94141 4.65377 3.38912 4.20605 3.94141 4.20605H4.94141V3.20605C4.94141 2.65377 5.38912 2.20605 5.94141 2.20605ZM5.94141 12.2061C6.49369 12.2061 6.94141 12.6538 6.94141 13.2061V14.2061H7.94141C8.49369 14.2061 8.94141 14.6538 8.94141 15.2061C8.94141 15.7583 8.49369 16.2061 7.94141 16.2061H6.94141V17.2061C6.94141 17.7583 6.49369 18.2061 5.94141 18.2061C5.38912 18.2061 4.94141 17.7583 4.94141 17.2061V16.2061H3.94141C3.38912 16.2061 2.94141 15.7583 2.94141 15.2061C2.94141 14.6538 3.38912 14.2061 3.94141 14.2061H4.94141V13.2061C4.94141 12.6538 5.38912 12.2061 5.94141 12.2061Z" fill="#04081B"/>
<path fill-rule="evenodd" clip-rule="evenodd" d="M12.9414 2.20605C13.3951 2.20605 13.792 2.51154 13.9081 2.95016L15.0873 7.40498L18.4411 9.33987C18.7506 9.51846 18.9414 9.84867 18.9414 10.2061C18.9414 10.5634 18.7506 10.8937 18.4411 11.0722L15.0873 13.0071L13.9081 17.4619C13.792 17.9006 13.3951 18.2061 12.9414 18.2061C12.4876 18.2061 12.0908 17.9006 11.9746 17.4619L10.7954 13.0071L7.44168 11.0722C7.13212 10.8936 6.94141 10.5634 6.94141 10.2061C6.94141 9.84868 7.13212 9.51846 7.44168 9.33987L10.7954 7.40499L11.9746 2.95016C12.0908 2.51154 12.4876 2.20605 12.9414 2.20605Z" fill="#04081B"/>
</svg>
