<svg width="56" height="67" viewBox="0 0 56 67" fill="none" xmlns="http://www.w3.org/2000/svg">
<path d="M35.702 43.9053C35.1901 43.7767 34.6507 43.0808 34.3539 42.6981C34.3484 42.6911 34.3429 42.6842 34.3374 42.6773C34.2669 42.5864 34.1933 42.5075 34.1068 42.4153C33.9006 42.1953 33.622 41.8981 33.1433 41.175C32.964 41.0047 32.7867 40.8323 32.6118 40.6575C30.7238 38.7694 28.9951 36.7221 27.2979 34.6432C27.2731 34.6204 27.2478 34.5971 27.2223 34.5736C26.7289 34.1199 26.1173 33.5571 25.8182 33.1183C25.4381 32.5603 25.202 32.1592 25.0115 31.8263C23.6654 30.1732 22.303 28.5363 20.86 26.98C20.4078 26.4922 19.9475 26.0124 19.4775 25.5424C19.0446 25.1096 18.6056 24.6828 18.1614 24.2614C17.8676 24.0511 17.5784 23.861 17.3103 23.6847C16.9335 23.4369 16.5983 23.2162 16.3499 23.0052C15.7516 22.497 15.1951 21.7983 14.7819 21.2795C14.7143 21.1947 14.6506 21.1146 14.5911 21.041C14.1948 20.697 13.7966 20.3548 13.3978 20.0133C13.3891 19.9726 13.3808 19.9311 13.3725 19.8888C13.269 19.3605 12.8779 18.9749 12.2627 18.3675C11.9948 18.103 11.6844 17.7964 11.3365 17.4178C11.1124 17.1739 11.0764 16.9694 11.0468 16.8024C11.0381 16.7533 11.0299 16.7073 11.0178 16.6646C10.9761 16.5183 10.8204 16.4757 10.6366 16.4254C10.398 16.3601 10.1118 16.2819 9.96501 15.9472C9.49743 14.8806 8.95621 14.7458 8.54682 14.6438C8.42672 14.6139 8.318 14.5867 8.22577 14.5397C7.92673 14.3874 7.67787 13.9931 7.53462 13.6504C7.42103 13.3785 6.95709 13.0715 6.56495 12.8789C6.41668 12.806 6.26622 12.6575 6.08923 12.4823C5.90608 12.301 5.6944 12.091 5.42652 11.9078C4.74959 11.4448 4.39483 11.1937 4.10984 10.9917C4.02858 10.9341 3.95315 10.8802 3.87732 10.8269C3.63769 10.6583 3.35512 10.4342 3.06914 10.2072C2.7269 9.93561 2.37954 9.65997 2.09467 9.47082C1.53099 8.80584 0.979267 8.12879 0.427522 7.45201C0.144454 7.10403 0.024513 6.61849 0.102757 6.09402C0.181281 5.56934 0.449245 5.05079 0.856785 4.64322C1.26435 4.23565 1.78291 3.96774 2.30759 3.88919C2.83206 3.81094 3.3179 3.93058 3.66589 4.21365C4.3662 4.78458 5.06671 5.35563 5.75394 5.93977C6.59109 6.65135 7.40876 7.38251 8.18313 8.15688C8.72483 8.69858 9.25683 9.25002 9.78107 9.8092C9.83505 9.86677 9.88884 9.92453 9.94265 9.98226C10.4981 10.337 11.0436 10.6999 11.3961 10.9874C11.6872 11.2248 11.8263 11.471 11.9455 11.6818C12.0275 11.8268 12.1 11.9552 12.2061 12.0524C12.2631 12.1046 12.3439 12.173 12.4412 12.2554C12.8387 12.5922 13.5139 13.1643 13.9848 13.8311C14.1938 14.127 14.4014 14.5059 14.5996 14.8676C14.8829 15.3848 15.1472 15.8671 15.3692 16.0221C15.7589 16.2942 16.0886 16.7235 16.3799 17.1029C16.6577 17.4648 16.9007 17.7813 17.1278 17.8725C17.399 17.9814 17.5281 18.1767 17.7201 18.4667C17.8533 18.6678 18.017 18.9145 18.2792 19.21C18.5818 19.5512 18.7527 19.8358 18.898 20.0778C19.1024 20.4182 19.2562 20.6744 19.6559 20.8858C20.0998 21.1207 20.5211 21.4088 20.7674 21.7212C20.8796 21.8635 21.0288 22.0054 21.1841 22.153C21.3897 22.3484 21.6058 22.5541 21.7608 22.7841C21.8886 22.9737 21.9406 23.184 21.9866 23.37C22.001 23.4281 22.0149 23.4837 22.0302 23.5357C22.1576 23.661 22.2854 23.7859 22.4142 23.91C22.4474 23.9177 22.483 23.9251 22.52 23.933C22.7057 23.9726 22.9338 24.0216 23.1499 24.1484C23.492 24.3492 23.686 24.6317 23.8903 24.9299C24.0493 25.1621 24.2147 25.4038 24.4618 25.6234C24.6302 25.7732 24.8437 25.922 25.0553 26.0696C25.3697 26.2887 25.6799 26.5053 25.8331 26.7181C25.8906 26.7978 25.8998 26.9064 25.9087 27.0142C25.9087 27.0148 25.9086 27.0153 25.9086 27.0159C25.9092 27.0232 25.9099 27.0304 25.9105 27.0377C26.3941 27.4456 26.8816 27.8496 27.3712 28.2513C27.4226 28.2772 27.4743 28.3036 27.5253 28.3299C27.7749 28.4583 28.0174 28.5831 28.2207 28.6193C28.4411 28.6584 28.82 28.932 29.2194 29.2203C29.4809 29.4091 29.7512 29.6043 29.9915 29.7441C30.1319 29.8258 30.1861 29.9824 30.2418 30.1436C30.2937 30.294 30.347 30.4484 30.473 30.5495C30.5362 30.6001 30.6188 30.6403 30.707 30.6832C30.7847 30.7209 30.8669 30.7608 30.9437 30.8117C31.0151 30.8591 31.1194 31.0191 31.2534 31.2241C31.3362 31.3508 31.4305 31.4946 31.535 31.6399C31.8971 31.9382 32.258 32.2378 32.6166 32.5396C32.7304 32.5636 32.8484 32.5651 32.9705 32.5376C33.0581 32.5179 33.1512 32.4827 33.2464 32.4468C33.3761 32.3979 33.5101 32.3475 33.6412 32.3316C33.7437 32.3192 33.8197 32.3494 33.8315 32.4089C33.837 32.4366 33.8288 32.4704 33.8214 32.5009C33.8129 32.5359 33.8055 32.567 33.8205 32.5809C33.8313 32.5909 33.8576 32.5864 33.8895 32.5811C33.9406 32.5727 34.0066 32.562 34.0502 32.6028C34.2121 32.7546 34.3781 32.9451 34.5407 33.1319C34.7214 33.3396 34.8982 33.5426 35.0609 33.6824C35.2432 33.839 35.4275 34.1375 35.6124 34.4363C35.7414 34.6448 35.8709 34.8533 35.9996 35.0144C36.1258 35.1724 36.3053 35.2887 36.4793 35.4011C36.6883 35.536 36.8894 35.6657 36.9798 35.8563C36.9981 35.8949 36.9715 35.9921 36.9383 36.1138C36.9148 36.2001 36.8881 36.299 36.8714 36.398C37.0503 36.5769 37.2266 36.7583 37.4008 36.9419C37.4155 36.9398 37.4306 36.9378 37.4458 36.9356C37.4461 36.9355 37.4464 36.9354 37.4467 36.9353C37.7907 36.8852 38.2612 36.8168 38.383 37.26C38.4139 37.3727 38.3836 37.4934 38.3564 37.6021C38.3297 37.7088 38.3057 37.8042 38.3455 37.8691C38.3907 37.9428 38.5019 37.972 38.6229 38.0039C38.7929 38.0488 38.9827 38.0988 39.0381 38.2843C39.0418 38.297 39.0458 38.3107 39.0501 38.3248C39.0911 38.4583 39.1518 38.656 39.1425 38.9223C39.4871 39.3405 39.8255 39.765 40.1598 40.1934C40.7172 40.9075 41.2637 41.6328 41.81 42.3578C42.0753 42.711 42.1842 43.1952 42.1025 43.7143C42.0204 44.2338 41.7567 44.7433 41.3568 45.1432C40.9569 45.543 40.4477 45.8065 39.9282 45.8886C39.4091 45.9704 38.9249 45.8614 38.5716 45.5961C37.9965 45.1627 37.421 44.7292 36.8512 44.2902C36.8165 44.2721 36.7819 44.2536 36.748 44.2347C36.4953 44.0941 36.2004 44.0242 35.9051 43.9544C35.8373 43.9383 35.7693 43.9223 35.702 43.9053Z" fill="#0075FA" fill-opacity="0.15"/>
<path d="M49.9619 29.9872C49.6226 29.8342 49.5671 29.333 49.5365 29.0574C49.5358 29.0524 49.5351 29.0474 49.5345 29.0424C49.5272 28.9769 49.5109 28.9183 49.4916 28.8497C49.4456 28.686 49.3834 28.4649 49.391 27.9562C49.3397 27.8266 49.291 27.696 49.2457 27.5644C48.7562 26.1425 48.4798 24.6473 48.2455 23.1376C48.238 23.1201 48.2303 23.1023 48.2226 23.0843C48.0734 22.7368 47.8884 22.3059 47.8863 21.9958C47.8835 21.6016 47.9113 21.3237 47.9386 21.0939C47.7551 19.8939 47.5498 18.7013 47.2368 17.5459C47.1387 17.1838 47.0299 16.8253 46.908 16.4713C46.7958 16.1454 46.6754 15.8222 46.5479 15.5015C46.4268 15.3309 46.2984 15.1732 46.1794 15.027C46.0122 14.8215 45.8635 14.6385 45.779 14.4742C45.5753 14.0783 45.5077 13.5729 45.4575 13.1976C45.4493 13.1363 45.4415 13.0784 45.4337 13.025C45.3028 12.7583 45.1694 12.4924 45.0351 12.2268C45.05 12.2009 45.0658 12.1745 45.082 12.1476C45.2841 11.8119 45.1798 11.5207 45.016 11.0622C44.9447 10.8625 44.8622 10.631 44.7886 10.3504C44.7412 10.1696 44.8226 10.0403 44.889 9.93465C44.9086 9.90358 44.9268 9.87447 44.9401 9.84679C44.9857 9.75189 44.8844 9.70328 44.7648 9.64584C44.6095 9.57133 44.4232 9.48198 44.4864 9.25742C44.6881 8.54185 44.3287 8.38084 44.0569 8.25905C43.9771 8.22332 43.905 8.19088 43.8567 8.14888C43.7001 8.01268 43.714 7.73709 43.7844 7.50814C43.8402 7.32661 43.6354 7.07238 43.4262 6.89813C43.347 6.83225 43.307 6.72009 43.2602 6.5879C43.2117 6.45111 43.1559 6.29272 43.0408 6.14235C42.75 5.76235 42.6021 5.55811 42.4835 5.39382C42.4497 5.34699 42.4185 5.30325 42.3868 5.25978C42.2864 5.12239 42.1816 4.94508 42.0756 4.76552C41.9488 4.55064 41.8201 4.33256 41.6947 4.1761C41.6031 3.69014 41.5277 3.19861 41.452 2.70724C41.4136 2.45468 41.5795 2.14254 41.9247 1.83578C42.2701 1.52895 42.7635 1.25356 43.3085 1.06593C43.8535 0.878304 44.4118 0.791669 44.873 0.820803C45.3338 0.850098 45.6571 0.993798 45.7823 1.21648C46.0336 1.66538 46.285 2.11436 46.5187 2.56937C46.8034 3.12363 47.0621 3.68692 47.2628 4.27008C47.4033 4.67804 47.5307 5.09047 47.6478 5.50647C47.6599 5.5493 47.6717 5.59222 47.6835 5.63512C47.9357 5.93164 48.1755 6.23168 48.302 6.4577C48.4064 6.64433 48.3847 6.81405 48.3662 6.95938C48.3535 7.0594 48.3422 7.14789 48.3745 7.2224C48.3919 7.26241 48.4195 7.31571 48.4527 7.38001C48.5885 7.64253 48.8191 8.08842 48.8357 8.56191C48.843 8.77201 48.8045 9.03228 48.7678 9.28075C48.7152 9.63605 48.6662 9.96734 48.7598 10.0938C48.9243 10.316 48.9561 10.6247 48.9841 10.8975C49.0108 11.1578 49.0342 11.3854 49.1663 11.4739C49.3241 11.5797 49.3219 11.7171 49.3189 11.9211C49.3168 12.0627 49.3145 12.2363 49.3645 12.454C49.4222 12.7053 49.4052 12.903 49.3907 13.071C49.3704 13.3075 49.3551 13.4854 49.5602 13.6722C49.788 13.8797 49.9689 14.1162 49.9972 14.3418C50.0101 14.4445 50.0527 14.5524 50.0971 14.6647C50.1559 14.8134 50.2176 14.9698 50.2173 15.132C50.2171 15.2658 50.1453 15.401 50.0817 15.5206C50.0619 15.5579 50.0431 15.5937 50.0273 15.6274C50.0614 15.7222 50.0961 15.8166 50.132 15.9107C50.1544 15.9203 50.1788 15.93 50.2041 15.9402C50.3309 15.9914 50.4866 16.0545 50.5908 16.1631C50.7556 16.335 50.7582 16.5348 50.7606 16.7456C50.7624 16.9097 50.7642 17.0806 50.843 17.25C50.8967 17.3655 50.9869 17.4871 51.0763 17.6076C51.2091 17.7866 51.34 17.9634 51.3477 18.1149C51.3505 18.1717 51.2994 18.2389 51.2484 18.3056C51.2481 18.306 51.2477 18.3063 51.2474 18.3066C51.2439 18.3112 51.2406 18.3157 51.2371 18.3202C51.4033 18.6384 51.5747 18.9549 51.749 19.2703C51.7761 19.2935 51.8031 19.3171 51.8297 19.3405C51.9597 19.455 52.086 19.5662 52.2288 19.6179C52.3836 19.6739 52.5386 19.8953 52.702 20.1287C52.809 20.2815 52.9196 20.4395 53.036 20.5595C53.1041 20.6296 53.063 20.7326 53.0205 20.8385C52.9808 20.9374 52.9402 21.0389 52.9863 21.1186C53.0095 21.1586 53.0537 21.1951 53.101 21.234C53.1427 21.2683 53.1868 21.3045 53.2207 21.3466C53.2521 21.3858 53.2491 21.4982 53.2456 21.6422C53.2435 21.7311 53.2412 21.8322 53.2464 21.9356C53.3746 22.1696 53.5011 22.4042 53.6248 22.6398C53.7027 22.671 53.7961 22.6892 53.9083 22.6904C53.9889 22.6913 54.0822 22.6835 54.1776 22.6757C54.3074 22.665 54.4415 22.6541 54.5548 22.6636C54.6433 22.671 54.6877 22.7005 54.665 22.7383C54.6544 22.756 54.6297 22.7752 54.6073 22.7927C54.5817 22.8127 54.559 22.8305 54.5635 22.8411C54.5668 22.8487 54.5901 22.8498 54.6185 22.8513C54.6638 22.8537 54.7223 22.8569 54.735 22.888C54.7825 23.0038 54.8123 23.1437 54.8414 23.2808C54.8737 23.4333 54.9054 23.5823 54.96 23.6909C55.0211 23.8126 55.0073 24.0207 54.9938 24.2291C54.9845 24.3744 54.9754 24.5199 54.9913 24.6365C55.0069 24.7508 55.0875 24.8476 55.1658 24.9413C55.2599 25.0538 55.3506 25.1619 55.32 25.2908C55.3138 25.3168 55.2402 25.3719 55.1481 25.4409C55.0828 25.4898 55.0082 25.5459 54.9415 25.6035C54.9879 25.7382 55.0309 25.8742 55.071 26.0111C55.0838 26.0119 55.0969 26.0129 55.1103 26.0138C55.1106 26.0138 55.1109 26.0137 55.1112 26.0137C55.4127 26.0337 55.8252 26.0611 55.6835 26.3478C55.6474 26.4207 55.5582 26.4895 55.4779 26.5514C55.3991 26.6123 55.3285 26.6667 55.3253 26.7119C55.3217 26.7632 55.3947 26.7971 55.4741 26.8342C55.5856 26.8863 55.7101 26.9445 55.6543 27.0651C55.6505 27.0734 55.6463 27.0823 55.6422 27.0914C55.6029 27.1785 55.5448 27.3073 55.3939 27.4675C55.4436 27.7717 55.4848 28.0787 55.5208 28.3876C55.5808 28.9024 55.6262 29.4224 55.6715 29.9423C55.6929 30.1954 55.5189 30.5052 55.1739 30.8081C54.8283 31.1113 54.3432 31.3818 53.8085 31.5659C53.2738 31.75 52.7253 31.8353 52.2664 31.8091C51.808 31.7827 51.4802 31.6457 51.3412 31.433C51.1157 31.0859 50.89 30.7387 50.6718 30.3889C50.6538 30.3729 50.6362 30.3566 50.6193 30.3401C50.4934 30.2178 50.2956 30.1323 50.0976 30.0467C50.0521 30.027 50.0065 30.0073 49.9619 29.9872Z" fill="#0075FA" fill-opacity="0.15"/>
<path d="M35.8625 66.8216C35.53 67.0462 34.9821 66.8528 34.6806 66.7466C34.6751 66.7447 34.6695 66.7429 34.664 66.7411C34.5924 66.7159 34.5233 66.7018 34.4423 66.6856C34.249 66.6471 33.9879 66.5949 33.4644 66.3424C33.3037 66.325 33.1435 66.3047 32.9838 66.2809C31.2589 66.0245 29.5672 65.5453 27.882 65.0219C27.86 65.0201 27.8376 65.0182 27.815 65.0163C27.3783 64.9797 26.8367 64.9341 26.5142 64.7862C26.1041 64.5982 25.8302 64.4395 25.606 64.3044C24.2679 63.8859 22.9264 63.4904 21.5681 63.2074C21.1424 63.1187 20.715 63.0413 20.2856 62.9774C19.8902 62.9187 19.4934 62.8684 19.0957 62.8256C18.8567 62.8497 18.6275 62.8865 18.4149 62.9205C18.1162 62.9684 17.8503 63.0107 17.6367 63.0057C17.1218 62.9936 16.5633 62.8089 16.1485 62.6717C16.0807 62.6493 16.0167 62.6281 15.9574 62.6092C15.6138 62.5955 15.2697 62.5844 14.9256 62.5742C14.9063 62.5486 14.887 62.522 14.8675 62.4947C14.623 62.1547 14.2677 62.1058 13.7084 62.0283C13.4649 61.9945 13.1826 61.9552 12.854 61.8844C12.6422 61.8388 12.5499 61.7046 12.4744 61.5952C12.4522 61.563 12.4314 61.5329 12.4095 61.5078C12.3345 61.4218 12.2322 61.4874 12.1113 61.565C11.9545 61.6655 11.7664 61.7863 11.566 61.6221C10.9275 61.099 10.5764 61.3373 10.3109 61.5176C10.233 61.5705 10.1624 61.6183 10.0941 61.6405C9.8727 61.7124 9.59406 61.5671 9.39279 61.3945C9.2332 61.2577 8.86469 61.3151 8.57684 61.4149C8.468 61.4527 8.33122 61.4337 8.17016 61.4111C8.00349 61.3876 7.8107 61.3602 7.59585 61.3887C7.05289 61.461 6.76539 61.4924 6.53429 61.5173C6.46841 61.5244 6.4071 61.5307 6.34574 61.5377C6.15188 61.5596 5.91436 61.5661 5.67392 61.5726C5.38617 61.5803 5.09414 61.5882 4.86766 61.6229C4.31694 61.4686 3.76869 61.2975 3.22051 61.1267C2.93901 61.0384 2.70043 60.7416 2.55927 60.2898C2.41819 59.8376 2.38549 59.2704 2.47022 58.7003C2.55497 58.1302 2.75123 57.5972 3.01773 57.2055C3.28422 56.8143 3.59888 56.5993 3.89389 56.5967C4.48804 56.5925 5.08232 56.5883 5.67379 56.6026C6.3943 56.6199 7.11078 56.6646 7.81823 56.7697C8.31311 56.8433 8.806 56.9304 9.29726 57.0284C9.34784 57.0385 9.39839 57.0489 9.44893 57.0592C9.88556 56.9806 10.3195 56.9146 10.6186 56.9126C10.8656 56.9109 11.0305 57.012 11.1716 57.0984C11.2688 57.158 11.3548 57.2106 11.4486 57.2182C11.4989 57.2223 11.5683 57.2238 11.652 57.2256C11.9938 57.233 12.5742 57.2455 13.0736 57.4598C13.2951 57.5548 13.5452 57.7145 13.784 57.8669C14.1254 58.0848 14.4437 58.288 14.6229 58.2667C14.9374 58.2294 15.2738 58.3506 15.571 58.4578C15.8545 58.56 16.1024 58.6494 16.2619 58.576C16.4524 58.4883 16.5937 58.5566 16.8037 58.6579C16.9494 58.7281 17.1282 58.814 17.3794 58.8752C17.6695 58.9459 17.8658 59.0563 18.0326 59.1502C18.2674 59.2824 18.444 59.3818 18.7427 59.2916C19.0745 59.1915 19.4124 59.1466 19.6608 59.2307C19.7739 59.269 19.9076 59.2837 20.0468 59.2989C20.231 59.319 20.4248 59.3403 20.5929 59.4189C20.7314 59.4837 20.8347 59.6122 20.9262 59.7259C20.9547 59.7614 20.9821 59.7953 21.0091 59.8255C21.1247 59.8413 21.2405 59.8563 21.3564 59.8702C21.3778 59.8552 21.4004 59.8384 21.4239 59.8211C21.542 59.7342 21.6872 59.6277 21.8532 59.5886C22.1158 59.5266 22.3242 59.6208 22.544 59.7206C22.7151 59.7983 22.8932 59.8793 23.1092 59.8919C23.2565 59.9005 23.4287 59.8798 23.5995 59.8594C23.853 59.829 24.1034 59.7993 24.2644 59.8658C24.3247 59.8907 24.3683 59.9682 24.4113 60.0453C24.4115 60.0457 24.4116 60.0462 24.4118 60.0467C24.4147 60.0519 24.4177 60.057 24.4206 60.0622C24.8357 60.0698 25.2516 60.0719 25.6679 60.071C25.7058 60.0583 25.7441 60.046 25.782 60.0339C25.9673 59.9748 26.1473 59.9175 26.2741 59.8168C26.4114 59.7077 26.7205 59.6783 27.0461 59.6473C27.2594 59.6271 27.4798 59.6061 27.6639 59.5616C27.7715 59.5357 27.8571 59.6216 27.9452 59.7102C28.0274 59.7928 28.1117 59.8776 28.2181 59.8756C28.2713 59.8745 28.3319 59.8532 28.3965 59.8304C28.4533 59.8103 28.5135 59.789 28.5745 59.7795C28.6313 59.7708 28.7462 59.8277 28.8937 59.9004C28.9848 59.9453 29.0884 59.9961 29.1983 60.0416C29.5066 60.0418 29.8147 60.0438 30.1222 60.0489C30.1945 59.9955 30.2612 59.9221 30.32 59.8239C30.3622 59.7534 30.4019 59.6676 30.4427 59.5799C30.4982 59.4606 30.5555 59.3373 30.6234 59.2422C30.6765 59.168 30.7298 59.1431 30.7574 59.1814C30.7703 59.1992 30.7776 59.2302 30.7842 59.2583C30.7918 59.2905 30.7986 59.3192 30.8119 59.3203C30.8215 59.3211 30.8346 59.3011 30.8507 59.2769C30.8763 59.2382 30.9096 59.1882 30.9484 59.192C31.0928 59.2062 31.2531 59.2476 31.4102 59.2883C31.5848 59.3336 31.7555 59.3776 31.8961 59.3822C32.0536 59.3872 32.2623 59.4999 32.4714 59.6124C32.6173 59.6909 32.7634 59.7691 32.8925 59.8115C33.0189 59.853 33.1606 59.8289 33.2979 59.8052C33.4627 59.7768 33.6212 59.7493 33.7392 59.8384C33.763 59.8565 33.7824 59.9479 33.8067 60.0623C33.824 60.1433 33.8439 60.236 33.8695 60.3226C34.0329 60.3468 34.1958 60.3747 34.3583 60.4056C34.3658 60.3947 34.3735 60.3836 34.3813 60.3723C34.3814 60.372 34.3815 60.3717 34.3817 60.3715C34.5569 60.1158 34.7966 59.7662 35.0213 60.0294C35.0784 60.0963 35.104 60.2081 35.1271 60.3086C35.1497 60.4074 35.17 60.4958 35.2152 60.5204C35.2665 60.5484 35.3391 60.5006 35.4183 60.4487C35.5294 60.3758 35.6535 60.2943 35.75 60.4017C35.7566 60.409 35.7636 60.417 35.771 60.4251C35.8411 60.5017 35.9449 60.615 36.0337 60.8252C36.3745 60.9285 36.714 61.0406 37.0526 61.1581C37.6171 61.3541 38.1794 61.5655 38.7416 61.7768C39.015 61.8803 39.2469 62.1831 39.3842 62.633C39.5215 63.0835 39.5534 63.641 39.4702 64.2003C39.3871 64.7597 39.1945 65.2834 38.9321 65.6745C38.6699 66.065 38.3599 66.2872 38.0682 66.3067C37.5928 66.3374 37.1171 66.3682 36.6428 66.3912C36.6169 66.3992 36.591 66.4068 36.5652 66.4138C36.374 66.4654 36.1839 66.5981 35.9937 66.731C35.95 66.7615 35.9062 66.7921 35.8625 66.8216Z" fill="#0075FA" fill-opacity="0.15"/>
</svg>
