<svg width="15" height="15" viewBox="0 0 15 15" fill="none" xmlns="http://www.w3.org/2000/svg">
<path d="M7.5 1.5C5.42893 1.5 3.75 3.17893 3.75 5.25V6.75C2.92157 6.75 2.25 7.42157 2.25 8.25V12C2.25 12.8284 2.92157 13.5 3.75 13.5H11.25C12.0784 13.5 12.75 12.8284 12.75 12V8.25C12.75 7.42157 12.0784 6.75 11.25 6.75H5.25V5.25C5.25 4.00736 6.25736 3 7.5 3C8.54738 3 9.42934 3.71634 9.67916 4.68694C9.78241 5.08808 10.1913 5.32957 10.5924 5.22633C10.9936 5.12308 11.2351 4.7142 11.1318 4.31306C10.7156 2.69582 9.24838 1.5 7.5 1.5Z" fill="#0075FA"/>
</svg>
