<svg width="19" height="22" viewBox="0 0 19 22" fill="none" xmlns="http://www.w3.org/2000/svg">
<path d="M5.87185 6.47399C5.21618 6.76047 4.39288 7.87206 4.21392 8.73964C4.14005 9.01938 4.09075 9.28548 4.05924 9.50402C4.05705 9.51869 4.05491 9.53334 4.05282 9.54798C4.0268 9.7369 4.00296 9.91813 3.98452 10.1304C3.96535 10.6341 3.83931 11.3509 4.36192 12.7846C4.50192 13.2097 4.68773 13.6317 4.99364 14.066C5.10155 14.2174 5.22486 14.3702 5.37968 14.5255C7.11223 16.0558 8.76433 15.6768 9.92973 15.662C12.8645 15.5004 14.8453 13.2915 16.0863 11.5482C16.1293 11.4907 16.1699 11.4317 16.2072 11.373C16.2529 11.3057 16.2964 11.2352 16.3354 11.1661C17.0362 9.77248 16.8555 8.61833 16.8261 7.90952C16.7599 7.25289 16.6902 6.78546 16.6384 6.39838C16.6172 6.19484 16.5826 6.00981 16.54 5.83894C15.742 2.88249 13.3835 1.92611 11.6859 0.765271C10.9817 0.31778 10.1753 0.125879 9.43317 0.0874288C8.51043 0.0402922 7.65281 0.187966 6.84084 0.389319C6.74672 0.412911 6.65379 0.438991 6.56192 0.467409C5.64832 0.751277 4.87474 1.24928 4.20181 1.78585C3.79336 2.0809 3.42843 2.37681 3.1025 2.65498C2.89574 2.83167 2.70489 3.00153 2.53046 3.16159C2.27518 3.40194 2.06952 3.64772 1.90828 3.87418C1.18912 4.88087 0.855715 6.14038 0.693619 7.04297C0.666666 7.19125 0.643597 7.33228 0.623927 7.46077C0.468399 8.1714 0.364348 8.88453 0.297141 9.59657C0.305251 9.64495 0.313993 9.69364 0.323164 9.74304C0.440379 10.3588 0.409087 11.0954 0.470613 12.2595C0.499421 12.7658 0.547799 13.3542 0.659892 14.0417C0.734119 14.4891 0.838348 14.7029 0.924042 14.8829C0.949332 14.9351 0.973185 14.9834 0.994826 15.0322C1.07012 15.2039 1.07428 15.3973 1.09017 15.6353C1.09196 15.6633 1.09386 15.6917 1.09601 15.7204C1.12333 16.0234 1.19035 16.393 1.44384 16.7827C2.36335 18.107 2.79019 18.5878 3.0658 19.0461C3.1514 19.1739 3.23136 19.2876 3.32369 19.3924C3.62347 19.7357 4.15235 20.0888 4.56786 20.3027C4.87746 20.4665 5.40451 20.8836 5.77202 21.2225C5.82973 21.2678 6.01455 21.3475 6.08435 21.37C6.11615 21.3824 6.14763 21.3946 6.17871 21.4064C6.39847 21.4904 6.70824 21.5581 7.07149 21.6071C7.44715 21.6582 7.88015 21.6887 8.33669 21.7166C9.49176 21.7758 10.0855 21.6942 10.5616 21.6496C10.6974 21.6348 10.8238 21.6192 10.9482 21.6032C11.3446 21.5522 11.8286 21.4642 12.3106 21.3595C12.3601 21.3488 12.4098 21.3379 12.4597 21.3268C12.4805 21.3222 12.5407 21.3013 12.5611 21.2951C13.0858 21.1312 13.5764 20.9584 13.9571 20.8397C14.9896 20.3849 15.9858 19.9397 17.0038 19.531C17.526 19.3202 17.9942 19.027 18.3103 18.701C18.6251 18.3752 18.7604 18.0433 18.6758 17.7676C18.5901 17.4927 18.2887 17.2937 17.8306 17.2176C17.3719 17.1418 16.7961 17.1981 16.2347 17.3742C15.1056 17.7265 13.985 18.1271 12.9034 18.5232C12.4996 18.67 12.1016 18.8144 11.7187 18.9404L11.8135 18.9108C10.9065 19.1283 10.0041 19.2991 9.12868 19.3774C8.25985 19.455 7.41913 19.4286 6.66298 19.2352L7.0529 19.4194C7.03959 19.4102 7.02625 19.4009 7.01287 19.3917C6.92457 19.3308 6.8384 19.2724 6.75201 19.214C6.09888 18.6795 5.52256 18.1826 5.14514 17.8277C4.83199 17.5371 4.59458 17.3555 4.39594 17.1924C4.2601 17.0804 4.14417 16.9773 4.04992 16.8564C3.99934 16.7915 3.93355 16.701 3.85994 16.5902C3.62919 16.2472 3.3459 15.7149 3.16659 15.1353C3.10286 14.9326 3.03809 14.7061 2.97643 14.4909C2.8617 14.091 2.72522 13.6082 2.61495 13.1367C2.45569 12.4632 2.35125 11.8144 2.36721 11.486C2.39336 10.9102 2.37035 10.2523 2.38013 9.67109C2.38794 9.11723 2.42488 8.634 2.51352 8.37272C2.61977 8.06082 2.64388 7.78765 2.70123 7.38476C2.74275 7.10512 2.79865 6.76472 2.94069 6.32782C3.10616 5.82655 3.23379 5.48597 3.35752 5.20492C3.49781 4.89246 3.63403 4.65154 3.87098 4.43211C3.94246 4.36515 4.02 4.29735 4.10553 4.2283C4.57601 3.84655 5.04784 3.46782 5.3934 3.16213C5.55075 3.02181 5.74287 2.88074 5.946 2.75017C6.21514 2.57647 6.50194 2.4245 6.75818 2.29009C6.94703 2.1907 7.10115 2.09345 7.24522 2.01089C7.26481 2.00051 7.28415 1.99028 7.30327 1.98025C7.35973 1.95062 7.41405 1.92277 7.46726 1.8975C7.67776 1.85083 7.88809 1.81159 8.09723 1.78191C8.13242 1.78574 8.16931 1.79052 8.20756 1.79573C8.3997 1.82208 8.63028 1.86077 8.89795 1.88579C9.32032 1.927 9.6658 1.93363 10.0132 1.99652C10.2483 2.04028 10.4833 2.113 10.7049 2.25924C10.7475 2.2874 10.7906 2.31645 10.8342 2.34654C11.0728 2.51113 11.3331 2.70977 11.5836 2.90777C11.9568 3.20168 12.3052 3.49674 12.5627 3.67256C12.6597 3.73848 12.7591 3.77349 12.8577 3.80965C12.8582 3.80976 12.8587 3.80987 12.8591 3.80999C12.8658 3.81243 12.8725 3.81494 12.8791 3.81741C13.4417 4.31809 13.9314 4.86899 14.2021 5.43552C14.22 5.48757 14.2363 5.53924 14.2509 5.5906C14.3229 5.84077 14.3397 6.07261 14.3037 6.21962C14.2893 6.27981 14.2813 6.36882 14.2668 6.47672C14.2465 6.7735 14.2403 7.1586 14.2313 7.54281C14.2219 7.94714 14.2059 8.34963 14.165 8.65526C14.1414 8.834 14.1705 8.99745 14.1941 9.15868C14.216 9.30819 14.2326 9.458 14.1953 9.59059C14.1767 9.65625 14.1447 9.71895 14.1105 9.77015C14.0804 9.81555 14.0485 9.85195 14.0253 9.87615C14.0138 9.88847 14.0051 9.9097 14.0037 9.92462C13.9463 10.0096 13.8795 10.1113 13.8042 10.2232C13.7033 10.3729 13.5878 10.54 13.4607 10.7085C13.0796 11.1135 12.6868 11.4835 12.2822 11.7898C12.1803 11.8325 12.084 11.8551 11.9963 11.8549C11.9334 11.8547 11.873 11.8428 11.8115 11.8298C11.7279 11.812 11.6433 11.7916 11.55 11.7909C11.4772 11.7904 11.4101 11.8134 11.3792 11.8517C11.3648 11.8696 11.3581 11.8908 11.3519 11.91C11.3448 11.932 11.3382 11.9516 11.3216 11.9606C11.3097 11.9671 11.292 11.9646 11.2706 11.9615C11.2364 11.9565 11.1925 11.9497 11.1453 11.9732C10.969 12.0612 10.7743 12.1534 10.5783 12.223C10.3605 12.3012 10.14 12.3508 9.95714 12.3615C9.89966 12.365 9.83704 12.3715 9.76681 12.3791C9.50813 12.4025 9.2217 12.4437 8.95691 12.4711C8.70052 12.4981 8.46463 12.5107 8.28732 12.4972C8.11274 12.4848 7.96334 12.4249 7.87008 12.366C7.75387 12.2933 7.73034 12.2391 7.681 12.2425C7.6773 12.2426 7.67023 12.2458 7.66027 12.2511C7.6459 12.264 7.61993 12.2814 7.5857 12.2956C7.54781 12.311 7.49956 12.3221 7.44812 12.3204C7.36676 12.2072 7.27407 12.0237 7.20555 11.8225C7.20887 11.8135 7.21224 11.8043 7.21577 11.795C7.21587 11.7948 7.21597 11.7947 7.21607 11.7945C7.2958 11.5792 7.42698 11.334 7.29264 10.9997C7.25886 10.9132 7.20484 10.8567 7.15663 10.804C7.10947 10.7516 7.06789 10.7038 7.06199 10.6327C7.05536 10.5527 7.09099 10.459 7.13383 10.3608C7.19405 10.2216 7.26836 10.0749 7.25979 9.90597C7.25918 9.89449 7.25853 9.88207 7.25805 9.86911C7.25569 9.80326 7.25417 9.72073 7.24926 9.62549C7.2397 9.55997 7.2267 9.49006 7.20737 9.41659C7.31447 9.1093 7.43156 8.93319 7.7149 8.74112C7.78686 8.69533 7.85982 8.65275 7.93216 8.61432C8.19124 8.4687 8.48669 8.40111 8.53057 8.39525C8.46022 8.34685 8.82382 8.47834 9.05804 8.62529C9.31829 8.77683 9.58695 8.96351 9.84654 9.16361C10.2517 9.47539 10.6861 9.73388 11.0822 9.87479C11.4771 10.0125 11.8159 10.0387 12.0537 9.88408C12.2916 9.7336 12.3838 9.36343 12.2573 8.88332C12.1316 8.40392 11.8064 7.87524 11.3518 7.43802C11.0585 7.15665 10.7522 6.88699 10.401 6.62655C10.0169 6.37237 9.75492 6.09275 8.89042 5.89779C8.48941 5.83172 8.15031 5.85748 7.84787 5.90529C7.77199 5.91416 7.69834 5.92508 7.62628 5.93792C7.14594 6.02571 6.74627 6.1309 6.35294 6.26334C6.30591 6.2804 6.25855 6.29851 6.21105 6.31771C6.09875 6.3631 5.98517 6.41483 5.87185 6.47399Z" fill="#0075FA"/>
</svg>
